<svg xmlns="http://www.w3.org/2000/svg" viewBox="0 0 80 60" width="320" height="240">
  <ellipse cx="40" cy="57" rx="26" ry="3" fill="#000" opacity="0.4"/>

  <ellipse cx="40" cy="33" rx="28" ry="5" fill="#ffd700" opacity="0.5"/>
  <rect x="12" y="24" width="56" height="10" fill="#ffd700" opacity="0.25"/>

  <rect x="12" y="19" width="56" height="13" rx="2" fill="#7c4a1a"/>
  <rect x="12" y="19" width="56" height="3" rx="2" fill="#9a5c22"/>
  <rect x="12" y="24" width="56" height="3" fill="#b8901a"/>
  <rect x="12" y="24" width="56" height="1" fill="#d4aa30" opacity="0.7"/>
  <rect x="12" y="19" width="4" height="13" rx="1" fill="#a07818"/>
  <rect x="64" y="19" width="4" height="13" rx="1" fill="#a07818"/>

  <rect x="16" y="30" width="6" height="5" rx="1.5" fill="#a07818"/>
  <rect x="58" y="30" width="6" height="5" rx="1.5" fill="#a07818"/>

  <rect x="10" y="33" width="60" height="22" rx="2" fill="#6b3d14"/>
  <rect x="10" y="33" width="60" height="5" rx="2" fill="#7c4a1a"/>

  <rect x="10" y="37" width="60" height="3.5" fill="#b8901a"/>
  <rect x="10" y="49" width="60" height="3.5" fill="#b8901a"/>
  <rect x="10" y="37" width="60" height="1" fill="#d4aa30" opacity="0.7"/>
  <rect x="10" y="49" width="60" height="1" fill="#d4aa30" opacity="0.7"/>

  <rect x="10" y="33" width="5" height="22" rx="1" fill="#a07818"/>
  <rect x="65" y="33" width="5" height="22" rx="1" fill="#a07818"/>

  <circle cx="28" cy="14" r="2" fill="#ffd700"/>
  <circle cx="40" cy="9" r="2.5" fill="#ffd700" opacity="0.9"/>
  <circle cx="53" cy="12" r="1.5" fill="#fff" opacity="0.9"/>
  <circle cx="35" cy="7" r="1" fill="#ffd700" opacity="0.8"/>
  <circle cx="48" cy="6" r="1.5" fill="#fff" opacity="0.7"/>
  <circle cx="22" cy="10" r="1" fill="#ffd700" opacity="0.7"/>

  <rect x="8" y="7" width="64" height="48" rx="4" fill="none" stroke="#ffd700" stroke-width="2" opacity="0.5"/>
</svg>
