<svg xmlns="http://www.w3.org/2000/svg" viewBox="0 0 24 24">
  <circle cx="12" cy="12" r="12" fill="#3d1500"/>
  <!-- Flame outer -->
  <path d="M12 3 C9 7 8 9 10 12 C8.5 12 8 14 10 15 C9 16.5 11 21 12 21 C13 21 15 16.5 14 15 C16 14 15.5 12 14 12 C16 9 15 7 12 3Z" fill="#dc2626"/>
  <!-- Flame mid -->
  <path d="M12 7 C10.5 9.5 10.5 11 11.5 13 C10.5 13.5 10.5 15 12 15.5 C11.5 16 12 19 12 19 C12 19 12.5 16 12 15.5 C13.5 15 13.5 13.5 12.5 13 C13.5 11 13.5 9.5 12 7Z" fill="#f97316"/>
  <!-- Core -->
  <path d="M12 10.5 C11.2 11.5 11.5 13 12 13.5 C12.5 13 12.8 11.5 12 10.5Z" fill="#fef08a"/>
</svg>
