<svg xmlns="http://www.w3.org/2000/svg" viewBox="0 0 70 90" width="280" height="360">
  <!-- Main blob body (irregular bezier outline) -->
  <path d="M35 8 C52 6,65 18,65 34 C65 44,62 50,64 60 C67 72,58 82,48 85 C42 88,35 88,35 88 C35 88,28 88,22 85 C12 82,3 72,6 60 C8 50,5 44,5 34 C5 18,18 6,35 8 Z" fill="#254710"/>
  <!-- Mid layer (slightly lighter, inset) -->
  <path d="M35 13 C50 11,62 21,62 35 C62 44,59 50,61 59 C63 69,56 78,47 81 C41 84,35 84,35 84 C35 84,29 84,23 81 C14 78,7 69,9 59 C11 50,8 44,8 35 C8 21,20 11,35 13 Z" fill="#336614"/>
  <!-- Inner glow -->
  <ellipse cx="35" cy="49" rx="16" ry="19" fill="#42821a" opacity="0.45"/>
  <ellipse cx="32" cy="42" rx="9" ry="10" fill="#52a020" opacity="0.25"/>

  <!-- Left pseudopod (stubby reaching arm) -->
  <path d="M7 42 C0 38,0 26,4 22 C8 18,16 24,11 35 Z" fill="#254710"/>
  <!-- Right pseudopod (mirror) -->
  <path d="M63 42 C70 38,70 26,66 22 C62 18,54 24,59 35 Z" fill="#254710"/>

  <!-- Drips at bottom -->
  <ellipse cx="23" cy="87" rx="4.5" ry="4" fill="#1a3308"/>
  <ellipse cx="35" cy="89" rx="5" ry="3.5" fill="#1a3308"/>
  <ellipse cx="47" cy="87" rx="4.5" ry="4" fill="#1a3308"/>
  <ellipse cx="16" cy="84" rx="3" ry="3.5" fill="#1e3a0a"/>
  <ellipse cx="54" cy="84" rx="3" ry="3.5" fill="#1e3a0a"/>

  <!-- EYES (2 large bulging) -->
  <!-- Sockets -->
  <ellipse cx="24" cy="36" rx="11" ry="12" fill="#0d1a05"/>
  <ellipse cx="46" cy="36" rx="11" ry="12" fill="#0d1a05"/>
  <!-- Irises (amber) -->
  <ellipse cx="24" cy="36" rx="8" ry="9" fill="#c89000"/>
  <ellipse cx="46" cy="36" rx="8" ry="9" fill="#c89000"/>
  <!-- Pupils -->
  <ellipse cx="24" cy="37" rx="4.5" ry="5.5" fill="#0d1a00"/>
  <ellipse cx="46" cy="37" rx="4.5" ry="5.5" fill="#0d1a00"/>
  <!-- Eye shine -->
  <ellipse cx="21" cy="31" rx="2.5" ry="2" fill="#ffe566" opacity="0.8"/>
  <ellipse cx="43" cy="31" rx="2.5" ry="2" fill="#ffe566" opacity="0.8"/>

  <!-- Wavy mouth -->
  <path d="M20 58 Q27 64,35 60 Q43 56,50 61" fill="none" stroke="#1a3300" stroke-width="2.5" stroke-linecap="round"/>

  <!-- Surface bubbles -->
  <circle cx="44" cy="18" r="3.5" fill="none" stroke="#42821a" stroke-width="1.5"/>
  <circle cx="16" cy="53" r="2.5" fill="none" stroke="#336614" stroke-width="1.5"/>
  <circle cx="54" cy="67" r="2" fill="none" stroke="#336614" stroke-width="1.5"/>
  <circle cx="26" cy="70" r="2" fill="none" stroke="#336614" stroke-width="1.5"/>
</svg>
